<?xml version="1.0" encoding="UTF-8"?>
<svg width="3372px" height="1599px" viewBox="0 0 3372 1599" version="1.1" xmlns="http://www.w3.org/2000/svg" xmlns:xlink="http://www.w3.org/1999/xlink">
    <!-- Generator: Sketch 41.2 (35397) - http://www.bohemiancoding.com/sketch -->
    <title>marin-sunrise</title>
    <defs>
        <linearGradient x1="47.1779734%" y1="1.19794254%" x2="47.2261545%" y2="100%" id="linearGradient-1">
            <stop stop-color="#D5F7F8" offset="0%"></stop>
            <stop stop-color="#D3F6FA" offset="14.2759692%"></stop>
            <stop stop-color="#E0F4E9" offset="29.8919809%"></stop>
            <stop stop-color="#ECEDD8" offset="43.9286222%"></stop>
            <stop stop-color="#EEE9CB" offset="58.7279973%"></stop>
            <stop stop-color="#EED1AA" offset="82.4587932%"></stop>
            <stop stop-color="#B5A48F" offset="100%"></stop>
        </linearGradient>
        <linearGradient x1="50%" y1="45.1234691%" x2="50%" y2="100%" id="linearGradient-2">
            <stop stop-color="#898278" offset="0%"></stop>
            <stop stop-color="#766A59" offset="100%"></stop>
        </linearGradient>
        <linearGradient x1="50%" y1="0%" x2="50%" y2="100%" id="linearGradient-3">
            <stop stop-color="#71695F" offset="0%"></stop>
            <stop stop-color="#4D4D4E" offset="100%"></stop>
        </linearGradient>
        <rect id="path-4" x="0" y="0" width="3371" height="1599"></rect>
        <linearGradient x1="50%" y1="0%" x2="50%" y2="100%" id="linearGradient-6">
            <stop stop-color="#995447" offset="0%"></stop>
            <stop stop-color="#A54134" offset="100%"></stop>
        </linearGradient>
    </defs>
    <g id="Page-1" stroke="none" stroke-width="1" fill="none" fill-rule="evenodd">
        <g id="Vector-version">
            <polygon id="sky" fill="url(#linearGradient-1)" points="0 1180.01186 52.7782815 1184.87538 89.2941411 1180.90513 201.038567 1208.34027 290.115514 1195.42763 350.282558 1192.30923 397.362469 1172.27606 458.993021 1159.89817 507.72782 1191.16094 606.559607 1199.51982 783.655272 1275.504 987.989062 1350.01905 1188.48959 1362.36317 1394.20307 1333.50865 1518.23979 1355.09862 1574.3826 1339.54539 1672.38239 1350.79619 1819.4321 1308.49452 1847.67027 1325.62642 2127.11698 1305.78188 2251.63174 1318.03324 2321.17102 1340.57931 2427.15309 1309.99537 2649.07842 1344.5371 2798.90748 1312.05209 2899.55321 1353.86459 3046.22493 1322.95825 3132.81828 1356.27706 3371.97556 1331.85216 3371.97556 0 0 0"></polygon>
            <polygon id="distant-mountains" fill="url(#linearGradient-2)" points="9.09494702e-13 1162.84841 52.7782815 1167.8896 89.2941411 1163.77431 201.038567 1192.21162 290.115514 1178.8273 350.282558 1175.59499 397.362469 1154.83004 458.993021 1142 507.72782 1174.40475 606.559607 1183.06897 783.655272 1261.82875 987.989062 1339.06572 1188.48959 1351.86075 1394.20307 1321.95222 1518.23979 1344.33084 1574.3826 1328.20947 1672.38239 1339.87125 1819.4321 1296.02436 1847.67027 1313.78206 2127.11698 1293.21263 2251.63174 1305.91152 2321.17102 1329.28116 2427.15309 1297.58003 2649.07842 1333.38352 2798.90748 1299.71188 2901.007 1329.28116 3036.8252 1313.78206 3142.75752 1333.38352 3371.97556 1320.23522 3371.97556 1599 9.09494702e-13 1599"></polygon>
            <path d="M1.45496737,1521.73898 L50.9988565,1509.12074 L129.142988,1530.5106 L232.41242,1525.59671 L376.23809,1474.53454 L519.496772,1413.56678 L689.804064,1385.33972 L937.299391,1396.03465 L1200.72594,1382.17127 L1294.87911,1399.23646 L1337.1919,1381.39305 L1455.52539,1395.51214 L1484.75102,1418.54737 L1683.90993,1355.74523 L1967.06984,1315 C1967.06984,1315 2036.26726,1325.37252 2080.16667,1325.37252 C2100.56116,1325.37252 2114.30855,1320.05841 2114.30855,1320.05841 L2282.47018,1359.90314 L2383.67178,1325.37252 C2383.67178,1325.37252 2561.70378,1372.83202 2735.89292,1402.4605 C2758.50381,1406.30648 2777.27184,1392.32144 2777.27184,1392.32144 L2840.84108,1418.54737 L2874.98258,1391.55434 L2912.17025,1426.96323 L3145.2352,1458.10304 L3275.24196,1521.73898 L3371.86319,1530.5106 L3371.86319,1598.9159 L1.45496737,1598.9159 L1.45496737,1521.73898 Z" id="closer-mountains" fill="url(#linearGradient-3)"></path>
            <g id="Bridge" transform="translate(1.000000, 0.000000)">
                <mask id="mask-5" fill="white">
                    <use xlink:href="#path-4"></use>
                </mask>
                <g id="Mask"></g>
                <g mask="url(#mask-5)">
                    <g transform="translate(1814.000000, 1401.000000)">
                        <path d="M173.756676,315.351462 L184.779678,315.351462 L184.779678,14 L136,14 L136,315.351462 L147.756676,315.351462 L147.756676,199.264101 L173.756676,199.264101 L173.756676,315.351462 Z M146.756676,38.6653159 L172.756676,38.6653159 L172.756676,66.946863 L146.756676,66.946863 L146.756676,38.6653159 Z M147.756676,86.1379129 L173.756676,86.1379129 L173.756676,114.41946 L147.756676,114.41946 L147.756676,86.1379129 Z M147.756676,136.640676 L173.756676,136.640676 L173.756676,180.073052 L147.756676,180.073052 L147.756676,136.640676 Z M147,14 L173,14 L173,20.0603315 L147,20.0603315 L147,14 Z" id="Combined-Shape" stroke="none" fill="url(#linearGradient-6)" fill-rule="evenodd"></path>
                        <path d="M693.960988,266 L703,266 L703,0 L663,0 L663,266 L672.640634,266 L672.640634,163.530818 L693.960988,163.530818 L693.960988,266 Z M671.820621,21.771834 L693.140975,21.771834 L693.140975,46.7356802 L671.820621,46.7356802 L671.820621,21.771834 Z M672.640634,63.675433 L693.960988,63.675433 L693.960988,88.6392791 L672.640634,88.6392791 L672.640634,63.675433 Z M672.640634,108.25373 L693.960988,108.25373 L693.960988,146.591065 L672.640634,146.591065 L672.640634,108.25373 Z M671,0 L694,0 L694,5.05703422 L671,5.05703422 L671,0 Z" id="Combined-Shape" stroke="none" fill="url(#linearGradient-6)" fill-rule="evenodd"></path>
                        <path d="M139.939757,15 L0,274.553038" id="Path-3" stroke="#9E4D40" stroke-width="3" fill="none"></path>
                        <path d="M139.939757,15 L0,274.553038" id="Path-3" stroke="#9E4D40" stroke-width="3" fill="none"></path>
                        <path d="M181.939757,15 L42,274.553038" id="Path-3" stroke="#9E4D40" stroke-width="3" fill="none"></path>
                        <path d="M183,16.7744856 C183,16.7744856 307.194064,222.914755 458.75983,209.852518 C610.325595,196.79028 699.008223,2 699.008223,2" id="Path-4" stroke="#9E4D40" stroke-width="3" fill="none"></path>
                        <path d="M141,16.7744856 C141,16.7744856 267.598909,222.914755 422.099533,209.852518 C576.600157,196.79028 667,2 667,2" id="Path-4" stroke="#9E4D40" stroke-width="3" fill="none"></path>
                        <polyline id="Path-5" stroke="#9E4D40" stroke-width="3" fill="none" points="700 3 783.31975 154.390658 814.793366 211.577718"></polyline>
                        <polyline id="Path-5" stroke="#9E4D40" stroke-width="3" fill="none" points="667 3 750.31975 154.390658 781.793366 211.577718"></polyline>
                    </g>
                </g>
            </g>
        </g>
    </g>
</svg>